<svg width="36" height="36" viewBox="0 0 36 36" fill="none" xmlns="http://www.w3.org/2000/svg">
<circle cx="18" cy="18" r="18" fill="url(#paint0_linear_753_1297)"/>
<path d="M14.9466 5.89453C14.9466 5.89453 4.99851 7.98604 5.83511 19.1434C6.67172 30.3007 20.5252 33.5546 26.9861 26.8605C26.9861 26.8605 15.7832 32.6711 9.97253 23.978C4.1619 15.2848 10.2514 7.52083 14.9466 5.89453Z" fill="#0A1517"/>
<path d="M26.207 7.53369C31.6788 11.3753 32.7252 19.3204 28.6191 24.5577C24.6029 29.8627 16.6486 30.8752 11.543 26.5606C16.7085 30.3397 24.3005 29.3323 28.1578 24.2019C32.1388 19.1263 31.1836 11.5968 26.207 7.53369Z" fill="#0A1517"/>
<path d="M6.65536 20.8258C4.9183 15.5924 7.57537 9.42997 12.3318 6.74423C13.9046 5.83205 15.6782 5.27952 17.453 5.20264C15.7694 5.75907 14.2083 6.51749 12.8296 7.51568C8.58659 10.5155 6.34261 15.655 6.65536 20.8258Z" fill="#0A1517"/>
<path d="M28.8911 15.7641C28.9888 19.9797 26.2888 24.052 22.3807 25.6431C16.2547 28.2767 9.00545 24.4116 7.78573 17.853C6.43178 11.3491 11.643 5.02376 18.2889 5.16189C16.2117 5.18795 14.1463 5.81997 12.4301 6.99538C6.97128 10.648 6.19462 18.5619 10.8741 23.1789C17.5565 29.7675 28.7321 25.1218 28.8911 15.7641Z" fill="#0A1517"/>
<path d="M29.7526 13.8526C31.0088 17.7933 29.9298 22.3698 27.0903 25.3866C18.9861 33.9103 4.88636 27.2878 6.24812 15.6157C6.81629 10.8789 10.4442 6.72062 15.082 5.60254C10.5888 6.94606 7.18377 11.0079 6.70031 15.6705C5.97056 22.2538 10.8625 28.1687 17.4732 28.6561C25.5604 29.2282 31.7411 21.6844 29.7526 13.8526Z" fill="#0A1517"/>
<path d="M31.1677 16.8681C31.414 21.0068 29.2078 25.0908 25.6959 27.2696C22.6505 29.2048 18.7255 29.627 15.3269 28.4242C8.04249 25.8596 4.95669 17.1939 9.05892 10.6326C11.2377 7.12073 15.3217 4.91324 19.4618 5.16213C15.4768 5.35891 11.7525 7.58725 9.78085 11.0666C5.96922 17.7255 9.7574 26.248 17.2842 27.8091C24.2937 29.2712 30.8237 23.9688 31.1677 16.8681Z" fill="#0A1517"/>
<path d="M28.7827 11.5537C30.7961 15.6039 30.082 20.703 27.0379 24.0507C20.2043 31.5841 7.73861 27.1586 7.18348 17.0034C6.97107 13.0771 8.95442 9.15079 12.2539 7.01497C12.7191 6.70874 13.2078 6.4442 13.7082 6.20312C12.7139 6.6944 11.7848 7.3186 10.9717 8.07441C7.21345 11.5186 6.25175 17.251 8.70032 21.7233C12.3334 28.5113 21.7511 29.6489 26.9049 23.9308C29.936 20.6665 30.7035 15.5739 28.7827 11.5537Z" fill="#0A1517"/>
<path d="M26.2027 7.53369C30.056 10.4097 31.8256 15.5635 30.5525 20.204C27.7026 30.6159 13.7826 32.4168 8.37593 23.0747C6.28703 19.4625 6.2766 14.7921 8.37072 11.1837C8.66392 10.6703 8.99883 10.1842 9.35588 9.71512C8.64959 10.6586 8.0697 11.6959 7.66313 12.8022C5.75926 17.8805 7.59927 23.7563 12.0729 26.8238C18.7788 31.5085 28.2499 28.0553 30.3805 20.1583C31.6784 15.6 29.9609 10.424 26.2027 7.53369Z" fill="#0A1517"/>
<path d="M30.9226 17.793C31.1441 25.7499 23.5665 32.001 15.7829 30.3994C4.57084 28.1268 1.67008 13.5357 11.2089 7.19472C13.307 5.83035 15.8077 5.10451 18.2901 5.16185C17.0521 5.19442 15.8194 5.38859 14.6401 5.76389C7.87034 7.91535 4.19684 15.2871 6.60762 21.9734C8.03454 26.0105 11.6637 29.1497 15.8689 29.9668C23.5886 31.5253 30.7832 25.6482 30.9226 17.793Z" fill="#0A1517"/>
<path d="M28.3617 11.2292C30.5353 15.2168 30.0179 20.3693 27.0937 23.8461C22.6058 29.3804 13.8488 29.3596 9.41165 23.7718C5.72381 19.3034 6.08868 12.4763 10.26 8.44965C11.0588 7.66387 11.9775 7.00709 12.9653 6.48193C11.9827 7.01491 11.0705 7.6795 10.2795 8.4705C6.17469 12.5102 5.802 19.2734 9.48723 23.7105C13.8983 29.2188 22.5706 29.2723 27.0338 23.7978C29.9437 20.3641 30.4871 15.1959 28.3617 11.2292Z" fill="#0A1517"/>
<path d="M26.4679 23.3861C26.8127 23.3861 27.0921 23.1066 27.0921 22.7619C27.0921 22.4172 26.8127 22.1377 26.4679 22.1377C26.1232 22.1377 25.8438 22.4172 25.8438 22.7619C25.8438 23.1066 26.1232 23.3861 26.4679 23.3861Z" fill="#0A1517"/>
<path d="M5.76873 11.7313C6.11346 11.7313 6.39292 11.4518 6.39292 11.1071C6.39292 10.7624 6.11346 10.4829 5.76873 10.4829C5.42399 10.4829 5.14453 10.7624 5.14453 11.1071C5.14453 11.4518 5.42399 11.7313 5.76873 11.7313Z" fill="#0A1517"/>
<path d="M14.0591 30.5196C14.4348 30.5196 14.7394 30.2151 14.7394 29.8394C14.7394 29.4637 14.4348 29.1592 14.0591 29.1592C13.6835 29.1592 13.3789 29.4637 13.3789 29.8394C13.3789 30.2151 13.6835 30.5196 14.0591 30.5196Z" fill="#0A1517"/>
<path d="M24.8245 11.6452C24.5209 11.6452 24.2759 11.8902 24.2759 12.1938C24.2759 12.212 24.2772 12.2316 24.2785 12.2485C24.1742 12.4362 24.0895 12.6329 24.0257 12.8362C24.311 12.788 24.616 12.7502 24.9418 12.7281C25.1867 12.676 25.3705 12.4557 25.3705 12.1938C25.3705 11.8902 25.1255 11.6452 24.8245 11.6452ZM24.3371 11.0914C24.3371 10.7877 24.0921 10.5427 23.7885 10.5427C23.4862 10.5427 23.2412 10.7877 23.2412 11.0914C23.2412 11.1643 23.2555 11.2347 23.2816 11.2985C22.9649 12.0935 22.5206 12.8349 21.9589 13.4904C22.3029 13.3249 22.7069 13.162 23.1812 13.0278C23.4679 12.5834 23.7103 12.113 23.911 11.6256C24.1547 11.5696 24.3371 11.352 24.3371 11.0914ZM22.6144 9.7348C22.6144 9.43248 22.3694 9.18749 22.0658 9.18749C21.7634 9.18749 21.5185 9.43248 21.5185 9.7348C21.5185 9.79605 21.5289 9.85469 21.5471 9.90942C21.4898 9.99021 21.422 10.0632 21.3438 10.1283C21.2031 10.2443 21.0415 10.3251 20.8682 10.3642C20.9255 10.1557 20.9724 9.9433 21.0168 9.72959C21.2083 9.64489 21.3425 9.45202 21.3425 9.22919C21.3425 8.92687 21.0975 8.68188 20.7939 8.68188C20.4916 8.68188 20.2466 8.92687 20.2466 9.22919C20.2466 9.34256 20.2805 9.44551 20.3391 9.53282C20.1254 10.6274 19.7175 11.6686 19.1272 12.6212V9.34517C19.2419 9.24483 19.3149 9.09757 19.3149 8.93338C19.3149 8.62975 19.0699 8.38477 18.7663 8.38477C18.4639 8.38477 18.2189 8.62975 18.2189 8.93338C18.2189 9.10539 18.2984 9.25916 18.4222 9.3595V14.0025C17.7824 13.5634 17.1048 13.1998 16.3972 12.9157C16.3946 12.6356 16.3542 12.3632 16.2799 12.1013C17.1817 11.5514 17.7172 10.5506 17.686 9.50285C17.7537 9.41163 17.7941 9.29956 17.7941 9.17706C17.7941 8.87344 17.5491 8.62845 17.2468 8.62845C16.9432 8.62845 16.6982 8.87344 16.6982 9.17706C16.6982 9.38556 16.8142 9.5654 16.9836 9.65792C16.9627 10.3681 16.6018 11.034 16.0115 11.438C15.7964 11.0418 15.498 10.6965 15.1397 10.4229C15.1266 10.131 14.8882 9.89899 14.5937 9.89899C14.29 9.89899 14.045 10.144 14.045 10.4476C14.045 10.7499 14.29 10.9949 14.5937 10.9949C14.6354 10.9949 14.6745 10.991 14.7122 10.9819C15.2374 11.3806 15.5945 11.9827 15.6753 12.6564C14.9038 12.4114 14.1024 12.2563 13.2788 12.1925C13.1824 12.0335 13.0091 11.9254 12.8097 11.9254C12.5061 11.9254 12.2611 12.1703 12.2611 12.4727C12.2611 12.7763 12.5061 13.0213 12.8097 13.0213C12.9439 13.0213 13.0677 12.9718 13.1628 12.891C13.3544 12.904 13.5446 12.9222 13.7323 12.9457C13.4182 13.3028 13.0025 13.5451 12.5504 13.6481C12.45 13.5295 12.3002 13.4539 12.1321 13.4539C11.8284 13.4539 11.5834 13.6989 11.5834 14.0012C11.5834 14.3036 11.8284 14.5498 12.1321 14.5498C12.2936 14.5498 12.4383 14.4782 12.5386 14.3674C13.3283 14.2345 14.0542 13.7823 14.5129 13.0773C15.5163 13.2884 16.4754 13.6559 17.3667 14.1693C16.9732 14.2684 16.5653 14.3205 16.1509 14.3205V15.0242C16.8363 15.0242 17.5035 14.903 18.1395 14.6645C18.2346 14.7323 18.3284 14.8 18.4209 14.8704V16.6778C18.761 16.2648 19.0946 15.8438 19.4582 15.436C19.3488 15.4907 19.238 15.5428 19.1246 15.591V13.8566C19.7788 13.0096 20.2857 12.0804 20.6375 11.0966C21.0598 11.0914 21.4637 10.9441 21.7934 10.6704C21.9315 10.5545 22.0514 10.4215 22.1479 10.2769C22.4137 10.2339 22.6144 10.0085 22.6144 9.7348ZM21.22 12.6564C21.22 12.3775 20.9959 12.1534 20.717 12.1534C20.4382 12.1534 20.214 12.3775 20.214 12.6564C20.214 12.7789 20.257 12.891 20.33 12.9783C20.343 13.4578 20.416 13.9296 20.5463 14.3856C20.7366 14.2319 20.9399 14.082 21.1588 13.9413C21.091 13.6481 21.0506 13.3497 21.0363 13.046C21.1484 12.9535 21.22 12.8128 21.22 12.6564ZM16.6904 15.7487C16.4115 15.7487 16.1861 15.9729 16.1861 16.2517C16.1861 16.5306 16.4115 16.7547 16.6904 16.7547C16.7686 16.7547 16.8429 16.7365 16.9093 16.7039C17.2546 16.8694 17.5791 17.0727 17.8762 17.3138C18.0339 17.1378 18.1864 16.9606 18.3362 16.7795C17.9714 16.4824 17.5713 16.2348 17.1439 16.038C17.0644 15.8673 16.8911 15.7487 16.6904 15.7487ZM15.3638 17.1678C15.5345 17.044 15.6739 16.8798 15.773 16.6857C15.932 16.3664 15.9593 16.0054 15.846 15.6679L15.1788 15.8881C15.2309 16.0484 15.2179 16.2191 15.1423 16.3703C15.0954 16.4641 15.0263 16.5436 14.9442 16.6023C14.5259 15.8595 14.4503 14.9343 14.8269 14.0977L14.1845 13.8097C13.6085 15.0972 13.8809 16.5514 14.7592 17.547C13.9212 17.2968 13.1498 16.829 12.5347 16.1722C12.536 16.1579 12.5373 16.1436 12.5373 16.1292C12.5373 16.1279 12.5373 16.1279 12.5373 16.1279C12.5373 15.8673 12.3549 15.6497 12.1112 15.5949C12.0721 15.5871 12.0317 15.5819 11.99 15.5819C11.9744 15.5819 11.9587 15.5832 11.9431 15.5845C11.6629 15.608 11.4414 15.8425 11.4414 16.1292C11.4414 16.4329 11.6877 16.6778 11.99 16.6778C11.9926 16.6778 11.9978 16.6778 12.0004 16.6765C12.0135 16.6765 12.0278 16.6752 12.0395 16.6739C12.7146 17.3933 13.5694 17.9262 14.5402 18.2181C15.0849 18.3823 15.6414 18.4644 16.1939 18.4644C16.3464 18.4644 16.5001 18.4579 16.6526 18.4449C17.0357 18.1634 17.3693 17.8546 17.6782 17.5288C17.1895 17.6812 16.6878 17.7568 16.1913 17.7568C15.8707 17.6083 15.5945 17.4063 15.3638 17.1678Z" fill="#0A1517"/>
<path d="M24.5806 16.2932C24.9846 16.2932 25.3859 16.2254 25.7677 16.0951C25.8524 16.1486 25.9528 16.1811 26.0609 16.1811C26.3633 16.1811 26.6083 15.9362 26.6083 15.6338C26.6083 15.3302 26.3633 15.0852 26.0609 15.0852C25.8329 15.0852 25.6374 15.2246 25.554 15.424C25.266 15.5244 24.9637 15.5817 24.6562 15.5895C24.9064 15.2755 25.1357 14.9432 25.3416 14.5939C25.3794 14.5301 25.4159 14.4636 25.4524 14.3972C25.4641 14.3959 25.4758 14.3946 25.4876 14.3933C25.7456 14.3476 25.9411 14.1235 25.9411 13.8538C25.9411 13.5514 25.6948 13.3064 25.3924 13.3064C25.3299 13.3064 25.2673 13.3182 25.21 13.339C25.1826 13.3481 25.154 13.3599 25.1279 13.3755C24.9598 13.468 24.8438 13.6479 24.8438 13.8551C24.8438 13.885 24.8464 13.915 24.8516 13.9437C24.8542 13.9606 24.8595 13.9789 24.8634 13.9958C24.793 14.1261 24.72 14.2551 24.6418 14.3815C24.5154 13.8342 24.5754 13.2543 24.8152 12.7435H24.823C24.8634 12.7435 24.9025 12.7396 24.9403 12.7305C24.6158 12.7526 24.3108 12.7904 24.0242 12.8386C23.7909 13.5749 23.8274 14.3815 24.1427 15.0995C23.5355 15.8801 22.781 16.5499 21.9066 17.0647C21.5626 17.1024 21.225 17.1624 20.8901 17.2445C20.9475 17.1598 21.0179 17.0829 21.0986 17.0164C21.3332 16.821 21.6303 16.7284 21.9339 16.7571L21.9978 16.0573C21.5078 16.0117 21.027 16.1603 20.6478 16.4769C20.3246 16.7454 20.1083 17.1064 20.0236 17.5103C19.716 17.6237 19.415 17.7553 19.1231 17.9052V16.3532C20.0131 16.0026 20.8354 15.5074 21.5639 14.8793C21.7815 14.693 21.9861 14.4962 22.1815 14.2916C22.4891 14.3646 22.8005 14.4024 23.1172 14.4024C23.2084 14.4024 23.3009 14.3998 23.3947 14.3933L23.3465 13.6909C23.1354 13.7052 22.9243 13.7 22.7171 13.6739C22.8813 13.4654 23.0351 13.2504 23.1771 13.0276C22.7028 13.1605 22.2988 13.3247 21.9548 13.4902C21.732 13.7521 21.4909 14.001 21.2303 14.2343C21.2016 14.1365 21.1755 14.0401 21.1534 13.9411C20.9358 14.0818 20.7312 14.2304 20.5409 14.3854C20.5735 14.4949 20.6074 14.6044 20.6452 14.7112C20.2699 14.9888 19.8724 15.2312 19.4541 15.4358C19.0905 15.8436 18.7569 16.2645 18.4168 16.6776V16.8496C18.3895 16.8262 18.3608 16.8027 18.3321 16.7806C18.1823 16.9604 18.0298 17.1389 17.8721 17.3149C17.9151 17.3474 17.9555 17.3826 17.9959 17.4178C17.8878 17.4595 17.7796 17.4973 17.6714 17.5312C17.3626 17.8557 17.029 18.1658 16.6459 18.4473C17.2505 18.3991 17.8474 18.2505 18.4168 18.0068V19.8247H15.6333V22.1012C15.2424 22.2394 14.9609 22.6107 14.9609 23.0473C14.9609 23.6011 15.4105 24.0507 15.9656 24.0507C16.5195 24.0507 16.9691 23.6011 16.9691 23.0473C16.9691 22.6251 16.7058 22.2628 16.337 22.1156V20.5271H18.422V22.8075C18.035 22.947 17.7574 23.317 17.7574 23.7523C17.7574 24.3061 18.207 24.7557 18.7608 24.7557C19.316 24.7557 19.7656 24.3061 19.7656 23.7523C19.7656 23.3275 19.4997 22.9652 19.127 22.8179V20.5271H21.212V22.1156C20.8419 22.2641 20.5787 22.6251 20.5787 23.0473C20.5787 23.6011 21.0283 24.0507 21.5834 24.0507C22.1372 24.0507 22.5868 23.6011 22.5868 23.0473C22.5868 22.6107 22.3053 22.2381 21.9157 22.1012V19.8247H19.1257V18.7079C21.0152 17.6133 23.2827 17.4426 25.2882 18.1567C25.3546 18.3847 25.5644 18.5502 25.812 18.5502C26.1157 18.5502 26.3607 18.3052 26.3607 18.0016C26.3607 17.6993 26.1157 17.4543 25.812 17.4543C25.7286 17.4543 25.6492 17.4725 25.5788 17.5064C24.8243 17.2288 24.0294 17.0647 23.2123 17.0256C23.5146 16.7884 23.7987 16.5317 24.0672 16.2593C24.2366 16.2802 24.4086 16.2932 24.5806 16.2932ZM16.6042 23.0447C16.6042 23.3978 16.3175 23.6845 15.9643 23.6845C15.6112 23.6845 15.3245 23.3965 15.3245 23.0447C15.3245 22.6915 15.6112 22.4049 15.9643 22.4049C16.3175 22.4049 16.6042 22.6928 16.6042 23.0447ZM19.3994 23.751C19.3994 24.1041 19.1127 24.3908 18.7595 24.3908C18.4064 24.3908 18.1197 24.1028 18.1197 23.751C18.1197 23.4278 18.3595 23.162 18.6696 23.1177H18.8482C19.1596 23.1607 19.3994 23.4278 19.3994 23.751ZM22.2206 23.0447C22.2206 23.3978 21.9339 23.6845 21.5808 23.6845C21.2277 23.6845 20.941 23.3965 20.941 23.0447C20.941 22.6915 21.2277 22.4049 21.5808 22.4049C21.9339 22.4049 22.2206 22.6928 22.2206 23.0447Z" fill="#0A1517"/>
<defs>
<linearGradient id="paint0_linear_753_1297" x1="-12.45" y1="-6.75" x2="31.5" y2="37.2" gradientUnits="userSpaceOnUse">
<stop stop-color="#00783F"/>
<stop offset="1" stop-color="#C89211"/>
</linearGradient>
</defs>
</svg>
