<svg width="36" height="36" viewBox="0 0 36 36" fill="none" xmlns="http://www.w3.org/2000/svg">
<path d="M35.4614 22.3543C33.0571 31.9972 23.2893 37.8658 13.6441 35.4611C4.00295 33.0571 -1.86622 23.2897 0.539134 13.6476C2.94238 4.00354 12.7102 -1.86541 22.3524 0.538622C31.9969 2.94265 37.8657 12.7111 35.4612 22.3545L35.4613 22.3543H35.4614Z" fill="#F3BA2F"/>
<path fill-rule="evenodd" clip-rule="evenodd" d="M18.0009 11.424L13.3394 16.085L13.3395 16.0848L10.6273 13.3728L18.0009 6L25.3769 13.375L22.6646 16.087L18.0009 11.424ZM8.7124 15.2876L6 18.0001L8.71221 20.7116L11.4246 17.9995L8.7124 15.2876ZM13.3397 19.9156L18.0012 24.5763L22.6649 19.9134L25.3786 22.624L25.3773 22.6254L18.0012 30.0003L10.6276 22.6275L10.6237 22.6237L13.3397 19.9156ZM27.2897 15.289L24.5773 18.0011L27.2896 20.713L30.0019 18.0009L27.2897 15.289Z" fill="#0A1517"/>
<path d="M20.7507 17.9985H20.7518L17.9998 15.2466L15.9656 17.28L15.7319 17.5137L15.2499 17.9957L15.2461 17.9995L15.2499 18.0034L17.9998 20.7533L20.752 18.0014L20.7534 17.9999L20.7509 17.9985" fill="#0A1517"/>
</svg>
