<svg class="svg-icon" style="width: 1em;height: 1em;vertical-align: middle;fill: currentColor;overflow: hidden;" viewBox="0 0 1024 1024" version="1.1" xmlns="http://www.w3.org/2000/svg"><path d="M0 512C0 229.226667 229.333333 0 512 0s512 229.226667 512 512-229.333333 512-512 512S0 794.773333 0 512z" fill="#FFFFFF" /><path d="M512.853333 204.8l-4.266666 13.994667v406.165333l4.266666 4.117333 188.586667-111.445333z" fill="#343434" /><path d="M512.853333 204.8L324.266667 517.632l188.586666 111.445333v-197.141333z" fill="#8C8C8C" /><path d="M512.853333 664.768l-2.346666 2.837333v144.682667l2.346666 6.784 188.586667-265.685333z" fill="#3C3C3B" /><path d="M512.853333 819.050667v-154.282667L324.266667 553.386667z" fill="#8C8C8C" /><path d="M512.853333 629.077333l188.586667-111.445333-188.586667-85.696z" fill="#141414" /><path d="M324.266667 517.632l188.586666 111.445333v-197.141333z" fill="#393939" /></svg>