<svg width="36" height="36" viewBox="0 0 36 36" fill="none" xmlns="http://www.w3.org/2000/svg">
<path d="M35.4574 22.3543C33.0534 31.9972 23.2866 37.8658 13.6426 35.4611C4.0025 33.0571 -1.86601 23.2897 0.539074 13.6476C2.94205 4.00354 12.7088 -1.86541 22.3499 0.538622C31.9933 2.94265 37.8615 12.7111 35.4572 22.3545L35.4573 22.3543H35.4574Z" fill="#50AF95"/>
<path fill-rule="evenodd" clip-rule="evenodd" d="M20.2793 20.0408C20.1521 20.0503 19.4945 20.0896 18.0276 20.0896C16.8609 20.0896 16.0326 20.0546 15.7419 20.0408C11.2332 19.8425 7.86779 19.0576 7.86779 18.1179C7.86779 17.1781 11.2332 16.3943 15.7419 16.1928V19.2591C16.0368 19.2803 16.8811 19.3302 18.0478 19.3302C19.4478 19.3302 20.1489 19.2718 20.2751 19.2602V16.1949C24.7743 16.3954 28.1323 17.1803 28.1323 18.1179C28.1323 19.0555 24.7754 19.8403 20.2751 20.0397L20.2793 20.0408ZM20.2793 15.8778V13.1339H26.5583V8.94971H9.46298V13.1339H15.7409V15.8767C10.6382 16.1111 6.80078 17.1219 6.80078 18.3332C6.80078 19.5444 10.6382 20.5541 15.7409 20.7896V29.5823H20.2783V20.7864C25.3693 20.552 29.2003 19.5423 29.2003 18.3321C29.2003 17.1219 25.3725 16.1122 20.2783 15.8767L20.2793 15.8778Z" fill="#0A1517"/>
</svg>
