<svg width="96" height="96" viewBox="0 0 96 96" fill="none" xmlns="http://www.w3.org/2000/svg">
<path d="M64.4707 90.3241C61.924 90.3146 59.4465 89.4947 57.397 87.983L50.1212 82.6609C49.2184 81.9961 48.1266 81.6375 47.0054 81.6375C45.8842 81.6375 44.7924 81.9961 43.8896 82.6609L36.6138 87.983C34.7324 89.3571 32.4922 90.1551 30.1658 90.2799C27.8393 90.4047 25.5267 89.851 23.509 88.6862C21.4912 87.5212 19.8554 85.7952 18.8002 83.7179C17.7451 81.6407 17.3161 79.3016 17.5654 76.9851L18.5422 68.0251C18.6677 66.9116 18.4327 65.7873 17.8719 64.8173C17.3111 63.8472 16.454 63.0826 15.4264 62.6356L7.19066 58.9977C5.05383 58.0609 3.2362 56.5219 1.95989 54.5688C0.683592 52.6156 0.00390625 50.333 0.00390625 47.9998C0.00390625 45.6667 0.683592 43.384 1.95989 41.4309C3.2362 39.4778 5.05383 37.9388 7.19066 37.0019L15.4264 33.364C16.454 32.9171 17.3111 32.1525 17.8719 31.1824C18.4327 30.2124 18.6677 29.088 18.5422 27.9746L17.5654 19.0146C17.3161 16.6981 17.7451 14.3591 18.8002 12.2819C19.8554 10.2047 21.4912 8.47873 23.5089 7.31379C25.5266 6.14885 27.8392 5.59512 30.1657 5.7199C32.4922 5.84468 34.7323 6.64261 36.6138 8.01669L43.8896 13.3388C44.7924 14.0036 45.8842 14.3622 47.0054 14.3622C48.1266 14.3622 49.2184 14.0036 50.1212 13.3388L57.397 8.01669C58.6926 7.0577 60.1712 6.3746 61.7413 6.0096C63.3113 5.6446 64.9396 5.60546 66.5254 5.89458C68.1454 6.18852 69.6892 6.80706 71.064 7.71298C72.4388 8.6189 73.6162 9.79351 74.5254 11.1662C74.7775 11.5354 74.9535 11.9511 75.0433 12.389C75.1331 12.8269 75.1348 13.2784 75.0483 13.717C74.9618 14.1556 74.7889 14.5726 74.5396 14.9437C74.2904 15.3148 73.9697 15.6325 73.5964 15.8785C73.223 16.1244 72.8045 16.2935 72.3651 16.376C71.9258 16.4585 71.4744 16.4527 71.0372 16.359C70.6001 16.2653 70.1861 16.0855 69.8191 15.8301C69.4522 15.5747 69.1398 15.2488 68.9001 14.8714C68.4936 14.2606 67.9678 13.7383 67.3541 13.336C66.7405 12.9337 66.0519 12.6596 65.3296 12.5304C64.6341 12.4021 63.9195 12.4213 63.2319 12.5867C62.5443 12.7521 61.8991 13.0599 61.338 13.4904L54.0622 18.8125C52.003 20.3218 49.5164 21.1355 46.9633 21.1355C44.4102 21.1355 41.9235 20.3218 39.8643 18.8125L32.6054 13.4904C31.7805 12.864 30.7892 12.4945 29.7556 12.4281C28.7219 12.3617 27.6916 12.6012 26.7932 13.1169C25.8949 13.6325 25.1684 14.4014 24.7044 15.3275C24.2404 16.2535 24.0595 17.2958 24.1843 18.3241L25.1612 27.2672C25.4548 29.7978 24.9337 32.356 23.6737 34.5701C22.4137 36.7842 20.4804 38.5388 18.1549 39.5788L9.90224 43.2167C8.96682 43.6319 8.17197 44.3095 7.61409 45.1675C7.0562 46.0255 6.75925 47.027 6.75925 48.0504C6.75925 49.0738 7.0562 50.0752 7.61409 50.9332C8.17197 51.7912 8.96682 52.4689 9.90224 52.884L18.1549 56.4209C20.4931 57.4466 22.4423 59.1928 23.7179 61.4046C24.9935 63.6164 25.5287 66.1781 25.2454 68.7156L24.2686 77.6588C24.1441 78.6869 24.3253 79.7289 24.7894 80.6548C25.2534 81.5806 25.9799 82.3493 26.8781 82.8648C27.7763 83.3804 28.8064 83.62 29.8399 83.5538C30.8734 83.4876 31.8646 83.1184 32.6896 82.4925L39.9486 77.1704C42.0078 75.6611 44.4944 74.8474 47.0475 74.8474C49.6006 74.8474 52.0873 75.6611 54.1465 77.1704L61.4222 82.4925C62.2472 83.1189 63.2384 83.4883 64.2721 83.5548C65.3057 83.6212 66.3361 83.3816 67.2344 82.866C68.1328 82.3503 68.8593 81.5815 69.3233 80.6554C69.7872 79.7293 69.9681 78.687 69.8433 77.6588L68.8665 68.7156C68.5726 66.1894 69.0919 63.6352 70.3488 61.4242C71.6057 59.2132 73.5349 57.4606 75.8559 56.4209L84.1086 52.783C85.0439 52.3678 85.8387 51.6901 86.3966 50.8321C86.9544 49.9741 87.2513 48.9727 87.2513 47.9493C87.2513 46.9259 86.9544 45.9245 86.3966 45.0665C85.8387 44.2085 85.0439 43.5309 84.1086 43.1156L79.6286 41.263C79.2116 41.0932 78.8329 40.8416 78.5148 40.5229C78.1968 40.2043 77.9458 39.8251 77.7768 39.4079C77.6078 38.9906 77.5241 38.5437 77.5308 38.0935C77.5375 37.6433 77.6343 37.1991 77.8156 36.787C77.9968 36.3749 78.2589 36.0033 78.5862 35.6942C78.9136 35.3851 79.2995 35.1448 79.7213 34.9874C80.1432 34.83 80.5922 34.7588 81.042 34.7779C81.4918 34.797 81.9332 34.9062 82.3401 35.0988L86.8201 37.0693C88.4174 37.7702 89.8428 38.8105 90.9974 40.118C92.1519 41.4255 93.0079 42.9687 93.5057 44.6405C94.0035 46.3122 94.1313 48.0723 93.8801 49.7983C93.629 51.5244 93.0049 53.1751 92.0513 54.6356C90.7746 56.5887 88.9569 58.1278 86.8201 59.0651L78.5844 62.703C77.557 63.1515 76.6994 63.9159 76.136 64.8851C75.5727 65.8543 75.333 66.9778 75.4517 68.0925L76.4286 77.0525C76.7113 79.3714 76.2987 81.722 75.2432 83.806C74.1877 85.8901 72.5368 87.6135 70.5001 88.7577C68.6619 89.7982 66.5829 90.3383 64.4707 90.3241Z" fill="url(#paint0_linear_565_4471)"/>
<path d="M47.3933 59.7896C46.9488 59.7899 46.5086 59.7023 46.0982 59.5318C45.6877 59.3612 45.3151 59.1111 45.0017 58.7959L30.5006 44.2948C30.1392 43.9945 29.8446 43.6218 29.6358 43.2008C29.4271 42.7797 29.3087 42.3197 29.2883 41.8502C29.268 41.3807 29.3461 40.9121 29.5176 40.4746C29.6892 40.0371 29.9504 39.6403 30.2845 39.3097C30.6185 38.9792 31.0181 38.7223 31.4574 38.5554C31.8967 38.3885 32.3661 38.3154 32.8354 38.3407C33.3046 38.3661 33.7634 38.4894 34.1822 38.7026C34.6009 38.9159 34.9705 39.2144 35.267 39.579L47.3933 51.7054L90.2396 8.79167C90.8814 8.21219 91.7214 7.90171 92.5858 7.92451C93.4502 7.94731 94.2727 8.30164 94.883 8.91415C95.4934 9.52665 95.8448 10.3504 95.8645 11.2149C95.8843 12.0793 95.5708 12.9183 94.9891 13.558L49.768 58.779C49.458 59.0953 49.0887 59.3474 48.6813 59.5208C48.2738 59.6942 47.8361 59.7855 47.3933 59.7896Z" fill="url(#paint1_linear_565_4471)"/>
<defs>
<linearGradient id="paint0_linear_565_4471" x1="47.0054" y1="5.70258" x2="47.0054" y2="90.3241" gradientUnits="userSpaceOnUse">
<stop stop-color="#E2E8FF"/>
<stop offset="1" stop-color="#8CB25D"/>
</linearGradient>
<linearGradient id="paint1_linear_565_4471" x1="62.5756" y1="7.92346" x2="62.5756" y2="59.7896" gradientUnits="userSpaceOnUse">
<stop stop-color="white"/>
<stop offset="1" stop-color="#BBD995"/>
</linearGradient>
</defs>
</svg>
