<svg width="20" height="20" viewBox="0 0 20 20" fill="none" xmlns="http://www.w3.org/2000/svg">
<path opacity="0.4" d="M8.95938 2.0416C9.54271 1.54993 10.4844 1.54993 11.051 2.0416L12.3677 3.1666C12.6177 3.37493 13.0927 3.54993 13.426 3.54993H14.8427C15.726 3.54993 16.451 4.27493 16.451 5.15827V6.57493C16.451 6.90827 16.626 7.37493 16.8344 7.62493L17.9594 8.9416C18.451 9.52493 18.451 10.4666 17.9594 11.0333L16.8344 12.3499C16.626 12.5999 16.451 13.0666 16.451 13.3999V14.8166C16.451 15.6999 15.726 16.4249 14.8427 16.4249H13.426C13.0927 16.4249 12.626 16.5999 12.376 16.8083L11.0594 17.9333C10.476 18.4249 9.53438 18.4249 8.96771 17.9333L7.65104 16.8083C7.40104 16.5999 6.92604 16.4249 6.60104 16.4249H5.14271C4.25938 16.4249 3.53437 15.6999 3.53437 14.8166V13.3916C3.53437 13.0666 3.36771 12.5916 3.15937 12.3499L2.03438 11.0249C1.55104 10.4499 1.55104 9.5166 2.03438 8.9416L3.15937 7.6166C3.36771 7.3666 3.53437 6.89993 3.53437 6.57493V5.1666C3.53437 4.28327 4.25938 3.55827 5.14271 3.55827H6.58438C6.91771 3.55827 7.38438 3.38327 7.63438 3.17493L8.95938 2.0416Z" fill="#E56060"/>
<path d="M10.0013 14.0583C9.54297 14.0583 9.16797 13.6833 9.16797 13.2249C9.16797 12.7666 9.53464 12.3916 10.0013 12.3916C10.4596 12.3916 10.8346 12.7666 10.8346 13.2249C10.8346 13.6833 10.468 14.0583 10.0013 14.0583Z" fill="#E56060"/>
<path d="M10 11.4332C9.65833 11.4332 9.375 11.1499 9.375 10.8082V6.7749C9.375 6.43324 9.65833 6.1499 10 6.1499C10.3417 6.1499 10.625 6.43324 10.625 6.7749V10.7999C10.625 11.1499 10.35 11.4332 10 11.4332Z" fill="#E56060"/>
</svg>
