<svg width="16" height="16" viewBox="0 0 16 16" fill="none" xmlns="http://www.w3.org/2000/svg">
<path d="M1.33398 14.667C1.33398 11.7215 3.7218 9.33366 6.66732 9.33366C9.61285 9.33366 12.0007 11.7215 12.0007 14.667H10.6673C10.6673 12.4579 8.87645 10.667 6.66732 10.667C4.45818 10.667 2.66732 12.4579 2.66732 14.667H1.33398ZM6.66732 8.66699C4.45732 8.66699 2.66732 6.87699 2.66732 4.66699C2.66732 2.45699 4.45732 0.666992 6.66732 0.666992C8.87732 0.666992 10.6673 2.45699 10.6673 4.66699C10.6673 6.87699 8.87732 8.66699 6.66732 8.66699ZM6.66732 7.33366C8.14065 7.33366 9.33398 6.14033 9.33398 4.66699C9.33398 3.19366 8.14065 2.00033 6.66732 2.00033C5.19398 2.00033 4.00065 3.19366 4.00065 4.66699C4.00065 6.14033 5.19398 7.33366 6.66732 7.33366ZM12.1898 9.80219C14.0436 10.6377 15.334 12.5017 15.334 14.667H14.0007C14.0007 13.043 13.0329 11.6451 11.6425 11.0184L12.1898 9.80219ZM11.7315 2.2758C13.0636 2.82501 14.0007 4.13607 14.0007 5.66699C14.0007 7.58046 12.5368 9.15046 10.6673 9.31873V7.97673C11.7985 7.81513 12.6673 6.84299 12.6673 5.66699C12.6673 4.74656 12.1351 3.95101 11.3613 3.57123L11.7315 2.2758Z" fill="white"/>
</svg>
