<svg width="12" height="13" viewBox="0 0 12 13" fill="none" xmlns="http://www.w3.org/2000/svg">
<path d="M6 0.5C4.81331 0.5 3.65328 0.851894 2.66658 1.51118C1.67989 2.17047 0.910851 3.10754 0.456725 4.2039C0.00259972 5.30025 -0.11622 6.50665 0.115291 7.67054C0.346802 8.83443 0.918247 9.90352 1.75736 10.7426C2.59648 11.5818 3.66557 12.1532 4.82946 12.3847C5.99335 12.6162 7.19975 12.4974 8.2961 12.0433C9.39246 11.5891 10.3295 10.8201 10.9888 9.83342C11.6481 8.84673 12 7.68669 12 6.5C11.9983 4.90923 11.3656 3.3841 10.2407 2.25926C9.1159 1.13441 7.59077 0.501721 6 0.5ZM6 10.5C5.90111 10.5 5.80444 10.4707 5.72222 10.4157C5.63999 10.3608 5.57591 10.2827 5.53806 10.1913C5.50022 10.1 5.49032 9.99944 5.50961 9.90245C5.5289 9.80546 5.57652 9.71637 5.64645 9.64644C5.71638 9.57652 5.80547 9.5289 5.90246 9.50961C5.99945 9.49031 6.09998 9.50021 6.19134 9.53806C6.28271 9.5759 6.3608 9.63999 6.41574 9.72221C6.47068 9.80444 6.5 9.90111 6.5 10C6.5 10.1326 6.44732 10.2598 6.35356 10.3536C6.25979 10.4473 6.13261 10.5 6 10.5ZM6.965 6.753C6.81745 6.84525 6.69679 6.97474 6.61516 7.12843C6.53354 7.28211 6.49382 7.45459 6.5 7.6285V8C6.5 8.13261 6.44732 8.25978 6.35356 8.35355C6.25979 8.44732 6.13261 8.5 6 8.5C5.86739 8.5 5.74022 8.44732 5.64645 8.35355C5.55268 8.25978 5.5 8.13261 5.5 8V7.6285C5.49262 7.27571 5.57979 6.92737 5.75247 6.61965C5.92514 6.31192 6.17704 6.05602 6.482 5.8785C6.66674 5.77675 6.81458 5.6192 6.90438 5.42837C6.99418 5.23754 7.02135 5.0232 6.982 4.816C6.94304 4.6186 6.84612 4.4373 6.70363 4.29524C6.56113 4.15319 6.37952 4.05684 6.182 4.0185C6.03786 3.99182 5.88962 3.99716 5.74777 4.03413C5.60592 4.0711 5.47394 4.13881 5.36116 4.23246C5.24839 4.3261 5.15758 4.4434 5.09517 4.57604C5.03275 4.70867 5.00027 4.85341 5 5C5 5.13261 4.94732 5.25978 4.85356 5.35355C4.75979 5.44732 4.63261 5.5 4.5 5.5C4.36739 5.5 4.24022 5.44732 4.14645 5.35355C4.05268 5.25978 4 5.13261 4 5C4.00013 4.64725 4.09354 4.30081 4.27078 3.99582C4.44801 3.69084 4.70276 3.43815 5.00918 3.26339C5.31559 3.08864 5.66278 2.99803 6.01551 3.00077C6.36825 3.0035 6.71399 3.09948 7.01766 3.27897C7.32132 3.45846 7.57212 3.71507 7.7446 4.02277C7.91709 4.33047 8.00512 4.67831 7.99977 5.03102C7.99443 5.38373 7.89589 5.72875 7.71416 6.03108C7.53243 6.33341 7.27397 6.5828 6.965 6.753Z" fill="#A69F9F" fill-opacity="0.5"/>
</svg>
