<svg width="13" height="12" viewBox="0 0 13 12" fill="none" xmlns="http://www.w3.org/2000/svg">
<path d="M6.55042 11.8333C5.00325 11.8333 3.51944 11.2187 2.42543 10.1246C1.33141 9.03062 0.716797 7.54681 0.716797 5.99964C0.716797 4.45247 1.33141 2.96866 2.42543 1.87464C3.51944 0.780628 5.00325 0.166016 6.55042 0.166016C8.0976 0.166016 9.5814 0.780628 10.6754 1.87464C11.7694 2.96866 12.384 4.45247 12.384 5.99964C12.384 7.54681 11.7694 9.03062 10.6754 10.1246C9.5814 11.2187 8.0976 11.8333 6.55042 11.8333ZM5.96855 8.33327L10.0933 4.20852L9.26817 3.38339L5.96855 6.68214L4.3183 5.03277L3.49405 5.85789L5.96855 8.33327Z" fill="url(#paint0_linear_539_3626)"/>
<defs>
<linearGradient id="paint0_linear_539_3626" x1="6.55042" y1="0.166016" x2="6.55042" y2="11.8333" gradientUnits="userSpaceOnUse">
<stop offset="0.224" stop-color="white"/>
<stop offset="1" stop-color="#46642A"/>
</linearGradient>
</defs>
</svg>
