<svg width="54" height="53" viewBox="0 0 54 53" fill="none" xmlns="http://www.w3.org/2000/svg">
<path d="M26.9995 52.7192C41.911 52.7192 53.9991 41.1236 53.9991 26.8198C53.9991 12.516 41.911 0.92041 26.9995 0.92041C12.0881 0.92041 0 12.516 0 26.8198C0 41.1236 12.0881 52.7192 26.9995 52.7192Z" fill="url(#paint0_linear_1666_834)"/>
<path fill-rule="evenodd" clip-rule="evenodd" d="M26.0234 10.2638C24.4557 10.4371 22.9982 11.1233 21.8961 12.2067C21.0686 12.9926 20.2849 13.7995 19.4465 14.5932C19.0268 15.0062 18.6026 15.4079 18.1784 15.8157C17.7542 16.2235 17.2863 16.6566 16.8457 17.0845C16.4051 17.5124 16.0392 17.8878 15.6314 18.2852C14.9942 18.8964 14.357 19.5076 13.7198 20.125C13.2309 20.6096 12.753 21.11 12.2696 21.5938C11.9847 21.8828 11.6779 22.1509 11.4094 22.4547C10.3012 23.7517 9.69548 25.3769 9.69531 27.0539C9.69531 27.1526 9.69531 27.2539 9.70168 27.3517C9.72435 28.3147 9.98784 29.2583 10.47 30.1032C10.7444 30.6138 11.0623 31.1018 11.4203 31.5623C11.657 31.8819 11.8291 31.8767 12.1404 31.6296C12.1999 31.5821 12.2555 31.5305 12.307 31.475C12.6137 31.165 12.9141 30.8559 13.2264 30.5468C13.667 30.1032 14.1185 29.6605 14.5591 29.2116C14.9996 28.7628 15.4775 28.2686 15.94 27.8049C16.1603 27.5779 16.3951 27.3683 16.6172 27.1448C17.0897 26.6654 17.5521 26.1711 18.0246 25.697C18.497 25.2228 18.9758 24.7792 19.4383 24.3156C19.9007 23.8519 20.4696 23.2843 20.9903 22.7691C21.511 22.2539 21.9525 21.8208 22.4359 21.3466C23.0649 20.7223 23.6775 20.0831 24.3002 19.4596C24.6871 19.078 25.0849 18.7122 25.4717 18.3358C26.0088 17.8206 26.5086 17.3054 27.0356 16.7902C27.5627 16.275 27.9541 15.9292 28.4057 15.4856C29.4149 14.5076 30.4226 13.5238 31.4288 12.5342C31.4937 12.4728 31.5545 12.4074 31.6108 12.3386C31.8584 12.0391 31.8794 11.9727 31.5735 11.7614C31.1065 11.4084 30.6064 11.0977 30.0797 10.8332C29.1487 10.4155 28.1335 10.1991 27.1057 10.1992H27.0548C26.7115 10.1993 26.3685 10.22 26.0279 10.2612L26.0225 10.256L26.0234 10.2638ZM34.9161 16.6086H34.8515C34.4106 16.6087 33.9749 16.7011 33.575 16.8792C33.1751 17.0573 32.8204 17.3169 32.5357 17.6399C32.4847 17.694 32.431 17.7455 32.3746 17.7944L30.7306 19.3409C30.1935 19.8569 29.6127 20.4184 29.0483 20.9598C28.5813 21.4078 28.1134 21.8461 27.6519 22.2949C27.1904 22.7438 26.6952 23.2432 26.1954 23.7122C25.6957 24.1811 25.1641 24.6727 24.6479 25.1556L22.8155 26.9282L19.4091 30.1966C17.9041 31.6462 16.4012 33.0928 14.9004 34.5365C14.6109 34.8098 14.6055 34.8456 14.9004 35.139C15.6205 35.8376 16.3514 36.5309 17.0496 37.2347C17.4816 37.6739 18.0517 37.9653 18.6727 38.0643C19.2586 38.1773 19.8638 38.1579 20.4405 38.0075C20.8726 37.905 21.2713 37.7013 21.6011 37.4146L23.3853 35.7616C23.8041 35.3756 24.2292 34.994 24.6425 34.602C25.4699 33.8161 26.2865 33.025 27.1139 32.2443C27.7857 31.6104 28.4739 30.9816 29.1557 30.3477L31.9531 27.7324C32.8233 26.9125 33.6991 26.0882 34.5802 25.2682C34.6389 25.1845 34.7205 25.1178 34.816 25.0754C34.9114 25.033 35.0172 25.0165 35.1218 25.0278C35.2263 25.039 35.3257 25.0776 35.409 25.1392C35.4923 25.2008 35.5564 25.2832 35.5943 25.3774C36.0422 26.0048 36.2818 26.7476 36.2816 27.508C36.2814 27.6381 36.2745 27.7681 36.2606 27.8975C36.1884 28.6641 35.8587 29.3876 35.3212 29.9591C34.6758 30.6245 33.9885 31.2532 33.3185 31.8924C32.8406 32.3456 32.3518 32.7892 31.873 33.2476C31.2549 33.8353 30.6477 34.4334 30.0296 35.0211C29.9386 35.1189 29.853 35.222 29.7565 35.3145L29.1494 35.9179C28.6942 36.3545 28.2309 36.7789 27.7839 37.2164C27.337 37.6539 26.8235 38.1656 26.3456 38.6432C26.3029 38.6895 26.2546 38.72 26.2118 38.7611C25.6738 39.2405 25.1795 39.7216 24.6689 40.2045C24.4276 40.4315 24.1964 40.6629 23.9597 40.89C23.5519 41.2873 23.1323 41.6759 22.7399 42.081C22.4987 42.3229 22.4987 42.4722 22.7836 42.6635C23.2514 43.0079 23.7494 43.3129 24.272 43.5751C25.5719 44.1389 27.0125 44.3355 28.4248 44.1418C29.8265 43.9822 31.1416 43.4075 32.187 42.4976C32.9817 41.8278 33.6918 41.0751 34.4328 40.3538C34.9698 39.8378 35.5078 39.2868 36.0822 38.7558L37.6352 37.2557C38.1086 36.7972 38.5755 36.3379 39.0544 35.8847C39.5332 35.4315 40.1285 34.8901 40.6656 34.3793C41.2027 33.8685 41.7407 33.3489 42.2777 32.8023C42.706 32.384 43.1015 31.936 43.4611 31.4619C44.1315 30.4902 44.5501 29.3789 44.6818 28.2206C44.7547 27.6452 44.7547 27.0635 44.6818 26.4881C44.522 25.4643 44.1353 24.4853 43.5476 23.617C43.125 23.0026 42.6193 22.4447 42.0438 21.9579C40.5554 20.5407 39.0717 19.113 37.6161 17.6643C37.2988 17.3254 36.9107 17.0543 36.4771 16.8687C36.0435 16.683 35.574 16.587 35.0991 16.5868H35.0791L34.9179 16.6077L34.9161 16.6086Z" fill="white"/>
<defs>
<linearGradient id="paint0_linear_1666_834" x1="3.67903" y1="11.7875" x2="45.8451" y2="41.8635" gradientUnits="userSpaceOnUse">
<stop stop-color="#FF3B3B"/>
<stop offset="1" stop-color="#FF9914"/>
</linearGradient>
</defs>
</svg>
