<svg width="156" height="156" viewBox="0 0 156 156" fill="none" xmlns="http://www.w3.org/2000/svg">
<rect opacity="0.5" x="1" y="1" width="154" height="154" rx="11" stroke="#A69F9F" stroke-opacity="0.5" stroke-width="2" stroke-dasharray="6 6"/>
<g opacity="0.3">
<path d="M98.8761 88.0412L92.3553 72.7912C91.1678 69.9996 89.397 68.4162 87.3761 68.3121C85.3761 68.2079 83.4386 69.6037 81.9595 72.2704L78.0011 79.3746C77.1678 80.8746 75.9803 81.7704 74.6886 81.8746C73.3761 81.9996 72.0636 81.3121 71.0011 79.9579L70.5428 79.3746C69.0636 77.5204 67.2303 76.6246 65.3553 76.8121C63.4803 76.9996 61.8761 78.2912 60.8136 80.3954L57.2095 87.5829C55.9178 90.1871 56.0428 93.2079 57.5636 95.6662C59.0845 98.1246 61.7303 99.6037 64.6261 99.6037H91.2095C94.0011 99.6037 96.6053 98.2079 98.147 95.8746C99.7303 93.5412 99.9803 90.6037 98.8761 88.0412Z" fill="#EEF1F8"/>
<path d="M67.5202 70.4583C71.4092 70.4583 74.5618 67.3057 74.5618 63.4167C74.5618 59.5277 71.4092 56.375 67.5202 56.375C63.6312 56.375 60.4785 59.5277 60.4785 63.4167C60.4785 67.3057 63.6312 70.4583 67.5202 70.4583Z" fill="#EEF1F8"/>
</g>
</svg>
