<svg width="15" height="12" viewBox="0 0 15 12" fill="none" xmlns="http://www.w3.org/2000/svg">
<path d="M12.9141 2.66667V1.33333C12.9141 0.598 12.3161 0 11.5807 0H2.91406C1.8114 0 0.914062 0.897333 0.914062 2V10C0.914062 11.4673 2.11006 12 2.91406 12H12.9141C13.6494 12 14.2474 11.402 14.2474 10.6667V4C14.2474 3.26467 13.6494 2.66667 12.9141 2.66667ZM2.91406 1.33333H11.5807V2.66667H2.91406C2.74241 2.65899 2.58033 2.5854 2.46158 2.46121C2.34283 2.33703 2.27655 2.17182 2.27655 2C2.27655 1.82818 2.34283 1.66297 2.46158 1.53879C2.58033 1.4146 2.74241 1.34101 2.91406 1.33333ZM12.9141 10.6667H2.92206C2.61406 10.6587 2.2474 10.5367 2.2474 10V3.87667C2.45673 3.952 2.67873 4 2.91406 4H12.9141V10.6667Z" fill="white"/>
</svg>
