<svg width="21" height="21" viewBox="0 0 21 21" fill="none" xmlns="http://www.w3.org/2000/svg">
<path d="M10.5 0.97168C4.977 0.97168 0.5 5.44868 0.5 10.9717C0.5 16.4947 4.977 20.9717 10.5 20.9717C16.023 20.9717 20.5 16.4947 20.5 10.9717C20.5 5.44868 16.023 0.97168 10.5 0.97168ZM13.5 11.9717H11.5V13.9717C11.5 14.5237 11.052 14.9717 10.5 14.9717C9.948 14.9717 9.5 14.5237 9.5 13.9717V11.9717H7.5C6.948 11.9717 6.5 11.5237 6.5 10.9717C6.5 10.4197 6.948 9.97166 7.5 9.97166H9.5V7.97168C9.5 7.41968 9.948 6.97168 10.5 6.97168C11.052 6.97168 11.5 7.41968 11.5 7.97168V9.97166H13.5C14.052 9.97166 14.5 10.4197 14.5 10.9717C14.5 11.5237 14.052 11.9717 13.5 11.9717Z" fill="#4C6D2B"/>
</svg>
