<svg width="17" height="17" viewBox="0 0 17 17" fill="none" xmlns="http://www.w3.org/2000/svg">
<g clip-path="url(#clip0_47_316)">
<path d="M14.2427 11.9939L12.7606 13.4671C12.6475 13.5802 12.5136 13.6367 12.3588 13.6367C12.2041 13.6367 12.0701 13.5802 11.957 13.4671L7.21596 8.726L2.47489 13.4671C2.36179 13.5802 2.22786 13.6367 2.0731 13.6367C1.91834 13.6367 1.78441 13.5802 1.67132 13.4671L0.189174 11.9939C0.0760789 11.8808 0.0195312 11.7453 0.0195312 11.5876C0.0195312 11.4299 0.0760789 11.2945 0.189174 11.1814L6.81417 4.56529C6.92727 4.45219 7.0612 4.39565 7.21596 4.39565C7.37072 4.39565 7.50465 4.45219 7.61775 4.56529L14.2427 11.1814C14.3558 11.2945 14.4124 11.4299 14.4124 11.5876C14.4124 11.7453 14.3558 11.8808 14.2427 11.9939Z" fill="white"/>
</g>
<defs>
<clipPath id="clip0_47_316">
<rect width="16" height="16" fill="white" transform="matrix(1 0 0 -1 0.0195312 16.1099)"/>
</clipPath>
</defs>
</svg>
