<svg width="24" height="24" viewBox="0 0 24 24" fill="none" xmlns="http://www.w3.org/2000/svg">
<g clip-path="url(#clip0_996_1917)">
<g clip-path="url(#clip1_996_1917)">
<path d="M16.1041 4.11523L15.4375 4.7819L17.6756 7.01999V9.21047C17.6756 9.49618 17.8661 9.68666 18.1518 9.68666H19.1041C19.3898 9.68666 19.5804 9.49618 19.5804 9.21047V7.97238C19.5804 7.73427 19.4852 7.49618 19.2946 7.3057L16.1041 4.11523Z" fill="#C89211"/>
<path d="M16.2489 20.6392H4.82031V4.4487C4.82031 3.40109 5.67746 2.54395 6.72508 2.54395H14.3441C15.3918 2.54395 16.2489 3.40109 16.2489 4.4487V20.6392Z" fill="#4C6D2B"/>
<path d="M20.1045 13.0189C19.6284 12.1618 19.1045 11.3046 19.1045 9.68555H18.1521C18.1521 11.5903 18.7236 12.5903 19.295 13.495C19.7236 14.2093 20.0569 14.876 20.0569 15.876C20.0569 16.3998 19.6284 16.8284 19.1045 16.8284C18.5807 16.8284 18.1521 16.3998 18.1521 15.876V13.495C18.1521 12.9713 17.7236 12.5427 17.1998 12.5427H16.2473V13.495H17.1998V15.876C17.1998 16.9236 18.0569 17.7807 19.1045 17.7807C20.1521 17.7807 21.0093 16.9236 21.0093 15.876C21.0093 14.6379 20.5331 13.8284 20.1045 13.0189ZM2.91406 18.7332H21.0093V20.6379H2.91406V18.7332Z" fill="#344054"/>
<path d="M14.3452 3.97266H6.72619C6.44048 3.97266 6.25 4.16312 6.25 4.44884V9.21075C6.25 9.49646 6.44048 9.68694 6.72619 9.68694H14.3452C14.6309 9.68694 14.8215 9.49646 14.8215 9.21075V4.44884C14.8215 4.16312 14.6309 3.97266 14.3452 3.97266Z" fill="#B2EBF2"/>
<path d="M14.3452 3.97266H6.72619C6.44048 3.97266 6.25 4.16312 6.25 4.44884V9.21075C6.25 9.49646 6.44048 9.68694 6.72619 9.68694H14.3452C14.6309 9.68694 14.8215 9.49646 14.8215 9.21075V4.44884C14.8215 4.16312 14.6309 3.97266 14.3452 3.97266Z" fill="#F9F5FF"/>
<path d="M11.0093 9.68596L13.2474 6.97168L9.91406 9.68596H11.0093Z" fill="#F44336"/>
<path d="M7.20182 6.73298L6.53516 6.06632C6.67801 5.92346 6.77325 5.82821 6.9161 5.73298L7.53516 6.49489C7.3923 6.5425 7.29705 6.63775 7.20182 6.73298ZM13.8685 6.73298C13.7732 6.63775 13.678 6.5425 13.5352 6.44727L14.1066 5.68536C14.2494 5.7806 14.3923 5.92346 14.4875 6.01869L13.8685 6.73298ZM8.63039 5.7806L8.24944 4.92346C8.3923 4.87584 8.58277 4.7806 8.72562 4.73298L9.01134 5.63775C8.86848 5.68536 8.77325 5.73298 8.63039 5.7806ZM12.3923 5.7806C12.2494 5.73298 12.1066 5.68536 11.9637 5.63775L12.2494 4.73298C12.3923 4.7806 12.5828 4.82821 12.7257 4.92346L12.3923 5.7806ZM10.2971 5.39964L10.2494 4.44727C10.4399 4.44727 10.5828 4.44727 10.7732 4.44727L10.7256 5.39964C10.5828 5.39964 10.4399 5.39964 10.2971 5.39964ZM11.4875 9.68536H9.58277C9.58277 9.16155 10.0113 8.73298 10.5352 8.73298C11.059 8.73298 11.4875 9.16155 11.4875 9.68536Z" fill="#455A64"/>
</g>
</g>
<defs>
<clipPath id="clip0_996_1917">
<rect width="24" height="24" fill="white"/>
</clipPath>
<clipPath id="clip1_996_1917">
<rect width="24" height="24" fill="white"/>
</clipPath>
</defs>
</svg>
