<svg width="16" height="16" viewBox="0 0 16 16" fill="none" xmlns="http://www.w3.org/2000/svg">
<g clip-path="url(#clip0_996_1930)">
<path d="M8.40342 1.8584C4.93801 1.8584 2.12891 4.6675 2.12891 8.13291C2.12891 11.5983 4.93801 14.4074 8.40342 14.4074C11.8688 14.4074 14.6779 11.5983 14.6779 8.13291C14.6779 4.6675 11.8688 1.8584 8.40342 1.8584ZM8.40342 11.2702C8.05707 11.2702 7.77597 10.989 7.77597 10.6427V8.13291C7.77597 7.78656 8.05707 7.50546 8.40342 7.50546C8.74977 7.50546 9.03086 7.78656 9.03086 8.13291V10.6427C9.03086 10.989 8.74977 11.2702 8.40342 11.2702ZM8.71714 6.25056H8.08969C7.91651 6.25056 7.77597 6.11 7.77597 5.93683V5.30938C7.77597 5.13621 7.91651 4.99565 8.08969 4.99565H8.71714C8.89032 4.99565 9.03086 5.13621 9.03086 5.30938V5.93683C9.03086 6.11 8.89032 6.25056 8.71714 6.25056Z" fill="white"/>
</g>
<defs>
<clipPath id="clip0_996_1930">
<rect width="16" height="16" fill="white"/>
</clipPath>
</defs>
</svg>
